<svg
  width="61"
  height="61"
  viewBox="0 0 61 61"
  fill="currentcolor"
  xmlns="http://www.w3.org/2000/svg"
>
  <path
    fill-rule="evenodd"
    clip-rule="evenodd"
    d="M43.5072 60.0152C38.1588 60.289 32.0356 60.289 29.9548 60.0152C13.7232 57.8798 0.779297 46.0123 0.779297 29.9713C0.779297 13.9303 14.0527 0.926453 30.4264 0.926453C46.8 0.926453 60.0734 13.9303 60.0734 29.9713C60.0734 37.4318 57.2022 44.2354 52.4833 49.3794C51.2019 50.7761 52.9601 51.7559 54.7464 52.7514C56.4984 53.7277 58.2775 54.7192 57.2435 56.1339C56.1042 57.6928 49.9276 59.6866 43.5072 60.0152ZM26.2572 26.3407C26.2572 28.847 24.1832 30.8789 21.6249 30.8789C19.0666 30.8789 16.9925 28.847 16.9925 26.3407C16.9925 24.6597 17.9254 23.1923 19.3115 22.4079C19.3913 24.5934 21.1882 26.3406 23.3932 26.3406L26.2572 26.3407ZM40.6148 22.4079C40.535 24.5934 38.7381 26.3406 36.5331 26.3406H33.669C33.669 28.8469 35.743 30.8789 38.3014 30.8789C40.8597 30.8789 42.9337 28.847 42.9337 26.3407C42.9337 24.6597 42.0009 23.1923 40.6148 22.4079Z"
    fill="currentcolor"
  />
</svg>
