<svg
  width="61"
  height="61"
  viewBox="0 0 61 61"
  fill="currentcolor"
  xmlns="http://www.w3.org/2000/svg"
>
  <path
    fill-rule="evenodd"
    clip-rule="evenodd"
    d="M50.3247 46.4178C56.3124 41.6301 60.0734 34.7127 60.0734 27.0199C60.0734 12.5683 46.8 0.852936 30.4264 0.852936C14.0527 0.852936 0.779297 12.5683 0.779297 27.0199C0.779297 34.4349 4.27368 41.1296 9.88827 45.8911C9.548 47.066 9.36133 48.3439 9.36133 49.6803C9.36133 55.4608 12.8543 60.1471 17.1632 60.1471C19.963 60.1471 22.4184 58.1685 23.7948 55.1967C25.1712 58.1685 27.6266 60.1471 30.4264 60.1471C32.9786 60.1471 35.2445 58.503 36.6679 55.9614C38.0913 58.503 40.3572 60.1471 42.9093 60.1471C47.2182 60.1471 50.7112 55.4608 50.7112 49.6803C50.7112 48.5412 50.5755 47.4444 50.3247 46.4178ZM47.5905 27.5389C47.5905 34.8758 39.7311 40.8237 30.0363 40.8237C20.3414 40.8237 12.4821 34.8758 12.4821 27.5389C12.4821 20.2019 20.3414 14.2541 30.0363 14.2541C39.7311 14.2541 47.5905 20.2019 47.5905 27.5389Z"
    fill="currentcolor"
  />
</svg>
