<svg
  width="60"
  height="47"
  viewBox="0 0 60 47"
  fill="currentcolor"
  xmlns="http://www.w3.org/2000/svg"
>
  <path
    fill-rule="evenodd"
    clip-rule="evenodd"
    d="M45.7606 22.1244C45.7572 22.1198 45.7558 22.114 45.7567 22.1083L49.5395 0.0506759C49.5412 0.0405195 49.5502 0.0330963 49.5604 0.0330963H50.7576C50.7669 0.0330963 50.775 0.0390837 50.7777 0.0478852L59.3001 27.0317C59.3028 27.0401 59.2999 27.0493 59.2929 27.0548L53.0093 31.9608C52.9999 31.9681 52.9863 31.9662 52.9793 31.9566L45.7606 22.1244ZM-0.115723 36.747C-0.115723 36.7562 -0.10984 36.7643 -0.101143 36.7672L12.852 41.0024C12.8582 41.0045 12.8652 41.0035 12.8706 40.9998L41.8239 21.0112C41.8287 21.0078 41.832 21.0026 41.8328 20.9968L44.9376 0.163775C44.9396 0.15099 44.9296 0.139502 44.9168 0.139502H19.2714C19.265 0.139502 19.2591 0.142304 19.255 0.147157L-0.110856 23.5092C-0.114002 23.513 -0.115723 23.5177 -0.115723 23.5227V36.747ZM18.2496 42.0815L32.4006 46.717C32.407 46.7191 32.414 46.7181 32.4195 46.7141L49.2672 34.6291C49.2766 34.6225 49.2789 34.6097 49.2726 34.6002L42.9568 25.2017C42.9502 25.1919 42.937 25.1893 42.9273 25.196L18.2496 42.0815Z"
    fill="currentcolor"
  />
</svg>
