<svg
  width="59"
  height="51"
  viewBox="0 0 59 51"
  fill="currentcolor"
  xmlns="http://www.w3.org/2000/svg"
>
  <path
    fill-rule="evenodd"
    clip-rule="evenodd"
    d="M44.4314 0.374329L44.6138 16.3965L30.6391 23.105L30.4668 7.97697L44.4314 0.374329Z"
    fill="currentcolor"
  />
  <path
    fill-rule="evenodd"
    clip-rule="evenodd"
    d="M58.4403 25.6212L44.6063 33.5341L30.7642 25.6087L44.5991 18.3415L58.4403 25.6212Z"
    fill="currentcolor"
  />
  <path
    fill-rule="evenodd"
    clip-rule="evenodd"
    d="M28.3036 25.6212L14.4697 33.5341L0.627441 25.6087L14.4625 18.3415L28.3036 25.6212Z"
    fill="currentcolor"
  />
  <path
    fill-rule="evenodd"
    clip-rule="evenodd"
    d="M14.3145 0.308716L28.6731 7.42004L28.306 22.9171L14.7487 16.2027L14.3145 0.308716Z"
    fill="currentcolor"
  />
  <path
    fill-rule="evenodd"
    clip-rule="evenodd"
    d="M44.8225 50.6913L30.4639 43.58L30.831 28.0828L44.3883 34.7972L44.8225 50.6913Z"
    fill="currentcolor"
  />
  <path
    fill-rule="evenodd"
    clip-rule="evenodd"
    d="M14.81 50.8355L14.6274 34.8133L28.6022 28.1049L28.7745 43.2328L14.81 50.8355Z"
    fill="currentcolor"
  />
</svg>
