<svg
  width="54"
  height="58"
  viewBox="0 0 54 58"
  fill="currentcolor"
  xmlns="http://www.w3.org/2000/svg"
>
  <path
    fill-rule="evenodd"
    clip-rule="evenodd"
    d="M8.98712 49.9575C8.7836 49.7661 8.58232 49.5709 8.38339 49.372C-2.11868 38.87 -2.11868 21.8427 8.38339 11.3407C18.8854 0.838595 52.3491 0.136017 52.3491 0.136017C52.3491 0.136017 56.9168 38.87 46.4148 49.372C37.0875 58.6992 22.6135 59.7427 12.1348 52.5024L20.5782 42.1409L34.0757 39.2268L23.0578 38.1253L30.0598 30.9959L38.0302 29.2498L31.7277 27.3834L38.0302 16.0137L29.0655 26.0692L25.6036 21.184L26.8223 29.2498L20.5782 36.2889L17.6838 27.3832V39.2268L8.98712 49.9575Z"
    fill="currentcolor"
  />
</svg>
