<svg
  width="39"
  height="61"
  viewBox="0 0 39 61"
  fill="currentcolor"
  xmlns="http://www.w3.org/2000/svg"
>
  <path
    fill-rule="evenodd"
    clip-rule="evenodd"
    d="M38.7438 40.9089C38.7438 51.4918 30.1324 60.0709 19.5096 60.0709C8.88682 60.0709 0.275391 51.4918 0.275391 40.9089C0.275391 30.6163 18.4692 2.34839 19.467 0.805801C19.4898 0.770625 19.5295 0.770625 19.5522 0.805802C20.55 2.34839 38.7438 30.6163 38.7438 40.9089ZM16.3033 53.9277C6.54296 51.792 8.21316 40.9801 8.21316 40.9801C8.21316 40.9801 10.8784 47.5069 17.3462 49.6211C23.8139 51.7352 31.63 48.6345 31.63 48.6345C31.63 48.6345 26.0637 56.0632 16.3033 53.9277Z"
    fill="currentcolor"
  />
</svg>
