<svg
  width="61"
  height="60"
  viewBox="0 0 61 60"
  fill="currentcolor"
  xmlns="http://www.w3.org/2000/svg"
>
  <path
    fill-rule="evenodd"
    clip-rule="evenodd"
    d="M27.4897 52.444C28.6161 52.6165 29.7698 52.7059 30.9446 52.7059C43.4522 52.7059 53.5916 42.5665 53.5916 30.0589C53.5916 17.5512 43.4522 7.41176 30.9446 7.41176C30.1054 7.41176 29.2768 7.45741 28.4614 7.54635C34.6659 12.2469 38.7681 20.3895 38.7681 29.6471C38.7681 39.3796 34.234 47.88 27.4897 52.444ZM30.5328 59.2941C46.9064 59.2941 60.1798 46.0207 60.1798 29.6471C60.1798 13.2734 46.9064 0 30.5328 0C14.1591 0 0.885742 13.2734 0.885742 29.6471C0.885742 46.0207 14.1591 59.2941 30.5328 59.2941Z"
    fill="currentcolor"
  />
</svg>
