<svg
  width="57"
  height="61"
  viewBox="0 0 57 61"
  fill="currentcolor"
  xmlns="http://www.w3.org/2000/svg"
>
  <path
    fill-rule="evenodd"
    clip-rule="evenodd"
    d="M9.21823 5.85592C9.93582 3.02275 12.5025 0.926453 15.5587 0.926453C17.8511 0.926453 19.8682 2.10593 21.036 3.89116H22.9483C24.1364 2.67188 25.7963 1.91469 27.6332 1.91469C30.3262 1.91469 32.6391 3.54237 33.6418 5.86763H35.2428C36.2461 5.24132 37.4315 4.87939 38.7013 4.87939C41.3945 4.87939 43.7073 6.50707 44.71 8.83234H49.0638C49.101 8.83234 49.1358 8.84236 49.1658 8.85983C49.3647 8.84164 49.5661 8.83234 49.7695 8.83234C53.3817 8.83234 56.3098 11.7605 56.3098 15.3727V34.9842L56.31 35.0206L56.3098 35.0569V35.3394C56.3098 35.459 56.3066 35.5782 56.3001 35.6968C55.9066 49.3018 43.6731 60.2206 28.6393 60.2206C13.3573 60.2206 0.96875 48.9381 0.96875 35.0206C0.96875 28.3026 3.85527 22.1986 8.56042 17.6811C8.54869 24.2304 8.65931 31.0013 9.16925 30.8852C10.5347 30.5739 9.46786 10.2884 9.21823 5.85592Z"
    fill="currentcolor"
  />
</svg>
