<svg
  width="61"
  height="53"
  viewBox="0 0 61 53"
  fill="currentcolor"
  xmlns="http://www.w3.org/2000/svg"
>
  <path
    fill-rule="evenodd"
    clip-rule="evenodd"
    d="M21.549 52.2521C30.235 52.2521 37.6713 47.4247 40.7413 40.5813C40.7788 40.4978 28.4158 43.7942 28.8101 42.6289C28.9861 42.1086 36.5646 39.34 42.086 36.1108C45.2595 34.2548 46.7209 30.3257 46.7209 30.3257C46.7209 30.3257 41.3744 32.9216 38.6715 33.5801C33.2248 34.9072 28.4302 34.7643 28.4302 34.626C28.4302 34.327 36.3915 32.8143 47.4568 26.0714C52.6616 22.8997 54.0753 17.4365 54.0753 17.4365C54.0753 17.4365 48.353 20.845 44.8938 21.9703C36.6904 24.6389 29.2043 25.4431 29.2043 25.082C29.2043 24.3089 35.7923 22.4973 42.7772 19.1128C46.4089 17.353 49.5542 15.054 53.1991 12.4973C59.163 8.31417 60.1465 0.863953 60.1465 0.863953C60.1465 0.863953 54.2644 4.65786 51.3938 5.91778C39.549 11.1166 29.0901 13.8437 21.549 14.4341C10.1654 15.3253 0.852539 23.2679 0.852539 33.5801C0.852539 43.8924 10.1186 52.2521 21.549 52.2521Z"
    fill="currentcolor"
  />
</svg>
