<svg
  width="56"
  height="61"
  viewBox="0 0 56 61"
  fill="currentcolor"
  xmlns="http://www.w3.org/2000/svg"
>
  <path
    fill-rule="evenodd"
    clip-rule="evenodd"
    d="M51.5066 50.093C51.5066 50.093 44.03 56.0895 29.1518 53.608C17.8639 51.7253 11.8435 39.2821 11.8435 32.5937C11.8435 16.736 23.5802 13.1273 31.5151 13.1273C39.4498 13.1273 44.6262 20.8633 44.6262 26.8529C44.6262 32.8426 40.3899 38.0815 33.7972 38.0815C27.2047 38.0815 25.2522 33.4532 25.2522 29.1981C25.2522 24.943 28.6948 23.4439 31.8345 23.4439C34.9742 23.4439 36.0492 26.1244 36.0492 28.4282C36.0492 30.7321 34.2617 31.5571 32.7708 31.5571C31.2799 31.5571 31.1325 30.8049 30.5619 30.0144C29.9912 29.224 31.2896 26.232 29.1518 26.232C27.014 26.232 26.6155 29.6716 26.6155 29.6716C26.6155 29.6716 27.3948 36.3113 33.7972 36.1967C40.1997 36.0821 43.237 31.1324 42.3543 26.232C41.4716 21.3314 36.7157 16.1241 28.3689 17.1763C20.0221 18.2285 16.6142 26.6622 18.1164 35.6749C19.6185 44.6877 30.4157 49.9098 38.9051 48.031C47.3946 46.1523 55.8499 40.0063 55.8499 24.4239C55.8499 8.8413 42.3543 -0.525211 26.2621 1.01844C10.1699 2.56209 0.180585 16.631 0.819989 33.535C1.45939 50.439 17.4993 59.6455 31.0627 60.12C44.6262 60.5945 52.9411 52.743 52.9411 52.743C52.9411 52.743 54.8111 51.0755 54.0779 49.7734C53.3448 48.4712 51.5066 50.093 51.5066 50.093Z"
    fill="currentcolor"
  />
</svg>
