<svg
  width="61"
  height="52"
  viewBox="0 0 61 52"
  fill="currentcolor"
  xmlns="http://www.w3.org/2000/svg"
>
  <path
    fill-rule="evenodd"
    clip-rule="evenodd"
    d="M0.9317 26.2559C0.923812 26.2425 0.923808 26.2258 0.93169 26.2122L15.8414 0.738262C15.8491 0.725049 15.8634 0.716919 15.8787 0.716919H45.4304C45.4458 0.716919 45.4601 0.725118 45.4678 0.738448L60.214 26.2125C60.2218 26.2258 60.2218 26.2423 60.214 26.2557L45.4678 51.7011C45.4601 51.7144 45.4458 51.7226 45.4304 51.7226H15.8787C15.8634 51.7226 15.8491 51.7145 15.8414 51.7013L0.9317 26.2559ZM44.3097 26.2198C44.3097 33.8038 38.1616 39.952 30.5775 39.952C22.9934 39.952 16.8452 33.8038 16.8452 26.2198C16.8452 18.6356 22.9934 12.4875 30.5775 12.4875C38.1616 12.4875 44.3097 18.6356 44.3097 26.2198Z"
    fill="currentcolor"
  />
</svg>
