<svg
  width="60"
  height="60"
  viewBox="0 0 60 60"
  fill="currentcolor"
  xmlns="http://www.w3.org/2000/svg"
>
  <path
    fill-rule="evenodd"
    clip-rule="evenodd"
    d="M12.6026 47.0158L22.1131 44.2582L30.3274 59.2776C30.3382 59.297 30.3661 59.297 30.3767 59.2776L38.5911 44.2582L48.1016 47.0158C48.1229 47.022 48.1427 47.0022 48.1364 46.9809L45.3783 37.6586L59.9835 29.6707C60.0031 29.66 60.0031 29.6321 59.9836 29.6215L45.2579 21.5677L48.1364 11.8386C48.1427 11.8172 48.1229 11.7974 48.1016 11.8036L38.368 14.626L30.3767 0.0146137C30.3661 -0.00487088 30.3382 -0.00487142 30.3275 0.0146132L22.3362 14.626L12.6026 11.8036C12.5813 11.7974 12.5615 11.8172 12.5679 11.8386L15.4463 21.5677L0.720668 29.6215C0.701184 29.6321 0.701183 29.66 0.720668 29.6707L15.3259 37.6586L12.5679 46.9809C12.5615 47.0022 12.5813 47.022 12.6026 47.0158ZM19.9827 29.7485L26.7203 33.4334L30.4052 40.171C30.4159 40.1905 30.4439 40.1905 30.4546 40.171L34.1395 33.4334L40.877 29.7485C40.8965 29.7379 40.8965 29.7098 40.877 29.6992L34.1395 26.0143L30.4546 19.2767C30.4439 19.2572 30.4159 19.2572 30.4052 19.2767L26.7203 26.0143L19.9827 29.6992C19.9632 29.7098 19.9632 29.7379 19.9827 29.7485Z"
    fill="currentcolor"
  />
</svg>
