<svg
  width="60"
  height="60"
  viewBox="0 0 60 60"
  fill="currentcolor"
  xmlns="http://www.w3.org/2000/svg"
>
  <g clip-path="url(#clip0_61_410)">
    <path
      fill-rule="evenodd"
      clip-rule="evenodd"
      d="M39.6297 0.0580525C39.6729 -0.00352486 39.7577 -0.0184898 39.8193 0.0246272L44.0294 2.9726C44.091 3.01572 44.1059 3.10058 44.0629 3.16216L38.203 11.5308C41.0518 12.4409 42.9927 13.4226 42.9927 13.4226C42.9927 13.4226 38.2487 21.5827 30.2024 21.5827C22.1561 21.5827 16.4385 13.9773 16.4385 13.9773C16.4385 13.9773 18.4659 12.6835 21.4711 11.5738L15.0437 3.91406C14.9954 3.85647 15.0029 3.77062 15.0605 3.7223L18.9977 0.418608C19.0553 0.370289 19.1411 0.3778 19.1894 0.435386L27.3276 10.134C28.0244 10.0552 28.7343 10.0111 29.4507 10.0111C30.4803 10.0111 31.5087 10.0894 32.5127 10.2222L39.6297 0.0580525ZM41.2216 21.9692C43.3688 20.4356 46.6179 16.433 46.6179 16.433C46.6179 16.433 54.9173 23.0098 54.9173 36.9551C54.9173 50.9002 40.569 59.2932 40.569 59.2932C40.569 59.2932 33.7137 52.37 32.0308 43.5939C30.348 34.8178 34.5202 25.073 34.5202 25.073C34.5202 25.073 39.0743 23.5027 41.2216 21.9692ZM18.0965 21.9692C15.9493 20.4356 12.7002 16.433 12.7002 16.433C12.7002 16.433 4.40088 23.0098 4.40088 36.9551C4.40088 50.9002 18.7491 59.2932 18.7491 59.2932C18.7491 59.2932 25.6044 52.37 27.2874 43.5939C28.9702 34.8178 24.7979 25.073 24.7979 25.073C24.7979 25.073 20.2439 23.5027 18.0965 21.9692Z"
      fill="currentcolor"
    />
  </g>
  <defs>
    <clipPath id="clip0_61_410">
      <rect width="59.2941" height="59.2941" fill="currentcolor" />
    </clipPath>
  </defs>
</svg>
