<svg
  width="45"
  height="61"
  viewBox="0 0 45 61"
  fill="currentcolor"
  xmlns="http://www.w3.org/2000/svg"
>
  <path
    fill-rule="evenodd"
    clip-rule="evenodd"
    d="M33.7202 46.7166C34.4528 44.0378 33.0308 38.5307 33.0308 38.5307C33.0308 38.5307 31.9994 43.0171 30.3878 44.6752C29.013 46.0896 27.3285 47.0706 24.9127 47.3284C26.8879 46.369 28.2462 44.3687 28.2462 42.0565C28.2462 38.8109 25.5696 36.1797 22.2679 36.1797C18.9662 36.1797 16.2895 38.8109 16.2895 42.0565C16.2895 42.9429 16.4893 43.7836 16.8468 44.5373C14.7817 42.8921 14.4569 40.2544 14.4569 40.2544C14.4569 40.2544 12.151 49.8284 18.5049 54.3319C24.8588 58.8355 37.3058 54.9645 37.3058 54.9645C37.3058 54.9645 19.4934 67.4976 6.29416 53.8569C-5.07586 42.1062 3.32657 26.6364 3.32657 26.6364C3.32657 26.6364 2.9637 28.0715 2.9637 29.7374C2.9637 31.4033 3.86692 32.6708 3.86692 32.6708C3.86692 32.6708 6.56122 26.9917 8.65805 24.6821C10.6426 22.4963 13.1302 20.7235 15.279 19.1923C16.9329 18.0136 18.3861 16.978 19.254 16.0074C24.0342 10.6624 21.1032 0.926453 21.1032 0.926453C21.1032 0.926453 26.4918 5.67693 27.9962 11.8122C28.5696 14.1509 28.2007 16.8118 27.8708 19.1914C27.3353 23.0543 26.9026 26.1757 30.7712 25.9731C37.0228 25.6457 31.5903 16.0074 31.5903 16.0074C31.5903 16.0074 45.7713 23.4609 44.7119 36.4966C43.6524 49.5322 29.2113 52.4958 29.2113 52.4958C29.2113 52.4958 32.9875 49.3953 33.7202 46.7166Z"
    fill="currentcolor"
  />
</svg>
