<svg
  width="60"
  height="44"
  viewBox="0 0 60 44"
  fill="currentcolor"
  xmlns="http://www.w3.org/2000/svg"
>
  <path
    fill-rule="evenodd"
    clip-rule="evenodd"
    d="M13.0591 43.7803C13.043 43.7803 13.0317 43.7645 13.0371 43.7493L28.175 0.975068C28.1784 0.965768 28.1872 0.959549 28.197 0.959549H44.3572C44.3671 0.959549 44.376 0.965815 44.3792 0.975172L59.2926 43.7494C59.2978 43.7646 59.2866 43.7803 59.2706 43.7803H13.514H13.0591ZM0.023313 43.9477C0.00705417 43.9477 -0.00420214 43.9315 0.00150097 43.9163L11.2743 13.8208C11.2777 13.8117 11.2864 13.8056 11.2961 13.8056H21.0909C21.1071 13.8056 21.1183 13.8217 21.1128 13.8369L10.2123 43.9324C10.209 43.9415 10.2002 43.9477 10.1904 43.9477H0.023313Z"
    fill="currentcolor"
  />
</svg>
