<svg
  width="53"
  height="60"
  viewBox="0 0 53 60"
  fill="currentcolor"
  xmlns="http://www.w3.org/2000/svg"
>
  <path
    fill-rule="evenodd"
    clip-rule="evenodd"
    d="M29.3605 29.5175C29.7623 29.2724 30.1033 28.7589 30.3782 28.1882C33.9967 29.6671 36.5395 33.1617 36.5395 37.2372C36.5395 42.6512 32.0519 47.0403 26.5162 47.0403C24.2438 47.0403 22.148 46.3006 20.4668 45.0541C19.9153 44.793 19.4616 44.5422 19.0903 44.3368C18.5144 44.0185 18.1368 43.8097 17.9003 43.8423C17.209 43.9376 17.4097 44.5737 17.5921 45.1514C17.7159 45.5439 17.8314 45.9095 17.6527 46.0603C17.4658 46.2183 16.8603 45.641 16.1528 44.9665C15.1898 44.0482 14.0377 42.9498 13.4944 43.2797C13.0649 43.5406 13.4819 44.2484 13.9924 45.1146L14.0303 45.1789C14.2459 45.5451 14.4958 45.918 14.7239 46.2582C15.1874 46.9497 15.5608 47.507 15.374 47.6012C15.1482 47.7152 13.5748 46.6532 12.2489 45.1789C11.7372 44.6099 11.2415 43.9931 10.7808 43.42V43.4199C9.77246 42.1652 8.93238 41.12 8.46081 41.2438C7.89352 41.3927 8.32266 42.5629 8.95323 43.6889C9.24808 44.2155 9.59493 44.7517 9.89522 45.2159V45.2161C10.3623 45.938 10.7168 46.4859 10.5882 46.5533C10.4147 46.644 8.88826 45.1555 7.85147 43.2797C7.23566 42.1655 6.71857 40.9342 6.29994 39.9375C5.84596 38.8564 5.50779 38.0512 5.28511 37.9701C4.51144 37.6886 4.51144 39.266 4.82174 41.5427C4.86221 41.8398 4.92249 42.1513 4.99671 42.4685C8.00591 52.2049 17.2499 59.2941 28.1868 59.2941C41.5646 59.2941 52.4094 48.6874 52.4094 35.6033C52.4094 23.1502 42.5855 12.9413 30.1037 11.9855C30.1195 11.3989 30.4257 10.2355 30.4257 10.2355C30.4257 10.2355 32.6292 4.90418 32.7457 3.76493C32.7533 3.68932 32.7625 3.60716 32.7723 3.51965C32.9096 2.28872 33.1649 0 31.1959 0C30.1444 0 29.6554 0.782247 29.0962 1.6769C28.8815 2.02035 28.6564 2.38039 28.3851 2.71908C26.4317 5.15854 23.1469 8.20492 21.2843 9.8279C17.3475 13.2583 13.4851 16.0775 11.2323 17.7218L11.2322 17.7219C10.2077 18.4697 9.51618 18.9745 9.30216 19.183C7.68941 20.7553 1.90682 31.1857 1.90682 31.1857C1.90682 31.1857 0.0367949 34.5321 0.70148 35.2109C1.36616 35.8895 2.96905 35.734 2.96905 35.734C2.96905 35.734 24.5026 30.7939 26.4305 30.4043C26.9496 30.2994 27.316 30.2388 27.5973 30.1924C28.361 30.0663 28.4982 30.0436 29.3605 29.5175ZM14.1354 23.1692C12.9796 24.2679 11.0626 26.8903 11.0626 26.8903C11.0626 26.8903 14.6253 27.1098 16.5875 25.2447C18.5497 23.3795 18.1002 20.2009 18.1002 20.2009C18.1002 20.2009 15.2912 22.0705 14.1354 23.1692Z"
    fill="currentcolor"
  />
</svg>
