<svg version="1.1"
      xmlns="http://www.w3.org/2000/svg"
      xmlns:xlink="http://www.w3.org/1999/xlink"  id="snapshot-98694" width="500" height="500" viewBox="0 0 500 500"><desc>This image was made on Patterninja.com</desc><defs>
<!-- image 35326 -->
<g id="transformed-35326" data-image="35326" transform="translate(438.77217009238296, 18.77217009238293) rotate(6, 35.22782990761706, 35.22782990761707)"><g><svg version="1.1" width="70.45565981523411px" height="70.45565981523414px" viewBox="0 0 70.45565981523411 70.45565981523414"><g id="original-35326"><svg xmlns="http://www.w3.org/2000/svg" fill="none" viewBox="0 0 120 120" xmlns:xlink="http://www.w3.org/1999/xlink" version="1.1" preserveAspectRatio="xMidYMid meet">
  <path fill-rule="evenodd" d="M60 120c33.137 0 60-26.863 60-60S93.137 0 60 0 0 26.863 0 60s26.863 60 60 60zM24.695 24.644a49.832 49.832 0 0 0-10.75 15.893A49.424 49.424 0 0 0 10.356 54H35.82c2.704-10.897 12.598-19 24.358-19s21.654 8.103 24.358 19H110a49.388 49.388 0 0 0-3.589-13.463A49.84 49.84 0 0 0 95.66 24.644a50.037 50.037 0 0 0-15.95-10.713C73.523 11.323 66.95 10 60.178 10c-6.774 0-13.347 1.323-19.533 3.93a50.08 50.08 0 0 0-15.95 10.714zM60.178 85c11.76 0 21.655-8.103 24.359-19H110a49.358 49.358 0 0 1-3.589 13.464 49.841 49.841 0 0 1-10.752 15.89 49.989 49.989 0 0 1-15.95 10.715A50.046 50.046 0 0 1 60.178 110a50.048 50.048 0 0 1-19.533-3.931 50.044 50.044 0 0 1-15.95-10.715 49.838 49.838 0 0 1-10.75-15.89A49.415 49.415 0 0 1 10.355 66H35.82c2.703 10.896 12.599 19 24.359 19zM10 60v.154-.306V60zm50.179 13c-7.204 0-13.047-5.82-13.047-13.001 0-7.18 5.843-12.999 13.047-13 7.204 0 13.045 5.82 13.045 13s-5.841 13-13.045 13z" clip-rule="evenodd" fill="rgba(255, 255, 255, 1)" stroke="none"/>
</svg>
</g></svg></g></g>
<!-- /image 35326 -->

<!-- image 89533 -->
<g id="transformed-89533" data-image="89533" transform="translate(314.7554880987242, 179.7554880987242) rotate(342, 51.24451190127583, 51.24451190127581)"><g><svg version="1.1" width="102.48902380255166px" height="102.48902380255161px" viewBox="0 0 102.48902380255166 102.48902380255161"><g id="original-89533"><svg xmlns="http://www.w3.org/2000/svg" fill="none" viewBox="0 0 120 120" xmlns:xlink="http://www.w3.org/1999/xlink" version="1.1" preserveAspectRatio="xMidYMid meet">
  <path fill-rule="evenodd" d="M60 120c33.137 0 60-26.863 60-60S93.137 0 60 0 0 26.863 0 60s26.863 60 60 60zM24.695 24.644a49.832 49.832 0 0 0-10.75 15.893A49.424 49.424 0 0 0 10.356 54H35.82c2.704-10.897 12.598-19 24.358-19s21.654 8.103 24.358 19H110a49.388 49.388 0 0 0-3.589-13.463A49.84 49.84 0 0 0 95.66 24.644a50.037 50.037 0 0 0-15.95-10.713C73.523 11.323 66.95 10 60.178 10c-6.774 0-13.347 1.323-19.533 3.93a50.08 50.08 0 0 0-15.95 10.714zM60.178 85c11.76 0 21.655-8.103 24.359-19H110a49.358 49.358 0 0 1-3.589 13.464 49.841 49.841 0 0 1-10.752 15.89 49.989 49.989 0 0 1-15.95 10.715A50.046 50.046 0 0 1 60.178 110a50.048 50.048 0 0 1-19.533-3.931 50.044 50.044 0 0 1-15.95-10.715 49.838 49.838 0 0 1-10.75-15.89A49.415 49.415 0 0 1 10.355 66H35.82c2.703 10.896 12.599 19 24.359 19zM10 60v.154-.306V60zm50.179 13c-7.204 0-13.047-5.82-13.047-13.001 0-7.18 5.843-12.999 13.047-13 7.204 0 13.045 5.82 13.045 13s-5.841 13-13.045 13z" clip-rule="evenodd" fill="rgba(255, 255, 255, 1)" stroke="none"/>
</svg>
</g></svg></g></g>
<!-- /image 89533 -->

<!-- image 11899 -->
<g id="transformed-11899" data-image="11899" transform="translate(302.90227771353557, 353.90227771353557) rotate(24, 46.09772228646444, 46.09772228646442)"><g><svg version="1.1" width="92.19544457292888px" height="92.19544457292884px" viewBox="0 0 92.19544457292888 92.19544457292884"><g id="original-11899"><svg xmlns="http://www.w3.org/2000/svg" fill="none" viewBox="0 0 120 120" xmlns:xlink="http://www.w3.org/1999/xlink" version="1.1" preserveAspectRatio="xMidYMid meet">
  <path fill-rule="evenodd" d="M60 120c33.137 0 60-26.863 60-60S93.137 0 60 0 0 26.863 0 60s26.863 60 60 60zM24.695 24.644a49.832 49.832 0 0 0-10.75 15.893A49.424 49.424 0 0 0 10.356 54H35.82c2.704-10.897 12.598-19 24.358-19s21.654 8.103 24.358 19H110a49.388 49.388 0 0 0-3.589-13.463A49.84 49.84 0 0 0 95.66 24.644a50.037 50.037 0 0 0-15.95-10.713C73.523 11.323 66.95 10 60.178 10c-6.774 0-13.347 1.323-19.533 3.93a50.08 50.08 0 0 0-15.95 10.714zM60.178 85c11.76 0 21.655-8.103 24.359-19H110a49.358 49.358 0 0 1-3.589 13.464 49.841 49.841 0 0 1-10.752 15.89 49.989 49.989 0 0 1-15.95 10.715A50.046 50.046 0 0 1 60.178 110a50.048 50.048 0 0 1-19.533-3.931 50.044 50.044 0 0 1-15.95-10.715 49.838 49.838 0 0 1-10.75-15.89A49.415 49.415 0 0 1 10.355 66H35.82c2.703 10.896 12.599 19 24.359 19zM10 60v.154-.306V60zm50.179 13c-7.204 0-13.047-5.82-13.047-13.001 0-7.18 5.843-12.999 13.047-13 7.204 0 13.045 5.82 13.045 13s-5.841 13-13.045 13z" clip-rule="evenodd" fill="rgba(255, 255, 255, 1)" stroke="none"/>
</svg>
</g></svg></g></g>
<!-- /image 11899 -->

<!-- image 85195 -->
<g id="transformed-85195" data-image="85195" transform="translate(193.5834133078152, 57.58341330781518) rotate(352, 43.416586692184815, 43.41658669218482)"><g><svg version="1.1" width="86.83317338436963px" height="86.83317338436964px" viewBox="0 0 86.83317338436963 86.83317338436964"><g id="original-85195"><svg xmlns="http://www.w3.org/2000/svg" fill="none" viewBox="0 0 120 120" xmlns:xlink="http://www.w3.org/1999/xlink" version="1.1" preserveAspectRatio="xMidYMid meet">
  <path fill-rule="evenodd" d="M60 120c33.137 0 60-26.863 60-60S93.137 0 60 0 0 26.863 0 60s26.863 60 60 60zM24.695 24.644a49.832 49.832 0 0 0-10.75 15.893A49.424 49.424 0 0 0 10.356 54H35.82c2.704-10.897 12.598-19 24.358-19s21.654 8.103 24.358 19H110a49.388 49.388 0 0 0-3.589-13.463A49.84 49.84 0 0 0 95.66 24.644a50.037 50.037 0 0 0-15.95-10.713C73.523 11.323 66.95 10 60.178 10c-6.774 0-13.347 1.323-19.533 3.93a50.08 50.08 0 0 0-15.95 10.714zM60.178 85c11.76 0 21.655-8.103 24.359-19H110a49.358 49.358 0 0 1-3.589 13.464 49.841 49.841 0 0 1-10.752 15.89 49.989 49.989 0 0 1-15.95 10.715A50.046 50.046 0 0 1 60.178 110a50.048 50.048 0 0 1-19.533-3.931 50.044 50.044 0 0 1-15.95-10.715 49.838 49.838 0 0 1-10.75-15.89A49.415 49.415 0 0 1 10.355 66H35.82c2.703 10.896 12.599 19 24.359 19zM10 60v.154-.306V60zm50.179 13c-7.204 0-13.047-5.82-13.047-13.001 0-7.18 5.843-12.999 13.047-13 7.204 0 13.045 5.82 13.045 13s-5.841 13-13.045 13z" clip-rule="evenodd" fill="rgba(255, 255, 255, 1)" stroke="none"/>
</svg>
</g></svg></g></g>
<!-- /image 85195 -->

<!-- image 02867 -->
<g id="transformed-02867" data-image="02867" transform="translate(69.48158251793313, 398.48158251793313) rotate(351, 47.518417482066866, 47.51841748206689)"><g><svg version="1.1" width="95.03683496413373px" height="95.03683496413377px" viewBox="0 0 95.03683496413373 95.03683496413377"><g id="original-02867"><svg xmlns="http://www.w3.org/2000/svg" fill="none" viewBox="0 0 120 120" xmlns:xlink="http://www.w3.org/1999/xlink" version="1.1" preserveAspectRatio="xMidYMid meet">
  <path fill-rule="evenodd" d="M60 120c33.137 0 60-26.863 60-60S93.137 0 60 0 0 26.863 0 60s26.863 60 60 60zM24.695 24.644a49.832 49.832 0 0 0-10.75 15.893A49.424 49.424 0 0 0 10.356 54H35.82c2.704-10.897 12.598-19 24.358-19s21.654 8.103 24.358 19H110a49.388 49.388 0 0 0-3.589-13.463A49.84 49.84 0 0 0 95.66 24.644a50.037 50.037 0 0 0-15.95-10.713C73.523 11.323 66.95 10 60.178 10c-6.774 0-13.347 1.323-19.533 3.93a50.08 50.08 0 0 0-15.95 10.714zM60.178 85c11.76 0 21.655-8.103 24.359-19H110a49.358 49.358 0 0 1-3.589 13.464 49.841 49.841 0 0 1-10.752 15.89 49.989 49.989 0 0 1-15.95 10.715A50.046 50.046 0 0 1 60.178 110a50.048 50.048 0 0 1-19.533-3.931 50.044 50.044 0 0 1-15.95-10.715 49.838 49.838 0 0 1-10.75-15.89A49.415 49.415 0 0 1 10.355 66H35.82c2.703 10.896 12.599 19 24.359 19zM10 60v.154-.306V60zm50.179 13c-7.204 0-13.047-5.82-13.047-13.001 0-7.18 5.843-12.999 13.047-13 7.204 0 13.045 5.82 13.045 13s-5.841 13-13.045 13z" clip-rule="evenodd" fill="rgba(255, 255, 255, 1)" stroke="none"/>
</svg>
</g></svg></g></g>
<!-- /image 02867 -->

<!-- image 45706 -->
<g id="transformed-45706" data-image="45706" transform="translate(38.17377753706519, 224.1737775370652) rotate(34, 48.82622246293481, 48.826222462934794)"><g><svg version="1.1" width="97.65244492586962px" height="97.65244492586959px" viewBox="0 0 97.65244492586962 97.65244492586959"><g id="original-45706"><svg xmlns="http://www.w3.org/2000/svg" fill="none" viewBox="0 0 120 120" xmlns:xlink="http://www.w3.org/1999/xlink" version="1.1" preserveAspectRatio="xMidYMid meet">
  <path fill-rule="evenodd" d="M60 120c33.137 0 60-26.863 60-60S93.137 0 60 0 0 26.863 0 60s26.863 60 60 60zM24.695 24.644a49.832 49.832 0 0 0-10.75 15.893A49.424 49.424 0 0 0 10.356 54H35.82c2.704-10.897 12.598-19 24.358-19s21.654 8.103 24.358 19H110a49.388 49.388 0 0 0-3.589-13.463A49.84 49.84 0 0 0 95.66 24.644a50.037 50.037 0 0 0-15.95-10.713C73.523 11.323 66.95 10 60.178 10c-6.774 0-13.347 1.323-19.533 3.93a50.08 50.08 0 0 0-15.95 10.714zM60.178 85c11.76 0 21.655-8.103 24.359-19H110a49.358 49.358 0 0 1-3.589 13.464 49.841 49.841 0 0 1-10.752 15.89 49.989 49.989 0 0 1-15.95 10.715A50.046 50.046 0 0 1 60.178 110a50.048 50.048 0 0 1-19.533-3.931 50.044 50.044 0 0 1-15.95-10.715 49.838 49.838 0 0 1-10.75-15.89A49.415 49.415 0 0 1 10.355 66H35.82c2.703 10.896 12.599 19 24.359 19zM10 60v.154-.306V60zm50.179 13c-7.204 0-13.047-5.82-13.047-13.001 0-7.18 5.843-12.999 13.047-13 7.204 0 13.045 5.82 13.045 13s-5.841 13-13.045 13z" clip-rule="evenodd" fill="rgba(255, 255, 255, 1)" stroke="none"/>
</svg>
</g></svg></g></g>
<!-- /image 45706 -->
</defs><rect x="0" y="0" width="500" height="500" fill="rgba(29, 29, 29, 0)"></rect><use xlink:href="#transformed-35326" transform="translate(-500, -500)"></use><use xlink:href="#transformed-35326" transform="translate(0, -500)"></use><use xlink:href="#transformed-35326" transform="translate(500, -500)"></use><use xlink:href="#transformed-35326" transform="translate(-500, 0)"></use><use xlink:href="#transformed-35326" transform="translate(0, 0)"></use><use xlink:href="#transformed-35326" transform="translate(500, 0)"></use><use xlink:href="#transformed-35326" transform="translate(-500, 500)"></use><use xlink:href="#transformed-35326" transform="translate(0, 500)"></use><use xlink:href="#transformed-35326" transform="translate(500, 500)"></use><use xlink:href="#transformed-89533" transform="translate(-500, -500)"></use><use xlink:href="#transformed-89533" transform="translate(0, -500)"></use><use xlink:href="#transformed-89533" transform="translate(500, -500)"></use><use xlink:href="#transformed-89533" transform="translate(-500, 0)"></use><use xlink:href="#transformed-89533" transform="translate(0, 0)"></use><use xlink:href="#transformed-89533" transform="translate(500, 0)"></use><use xlink:href="#transformed-89533" transform="translate(-500, 500)"></use><use xlink:href="#transformed-89533" transform="translate(0, 500)"></use><use xlink:href="#transformed-89533" transform="translate(500, 500)"></use><use xlink:href="#transformed-11899" transform="translate(-500, -500)"></use><use xlink:href="#transformed-11899" transform="translate(0, -500)"></use><use xlink:href="#transformed-11899" transform="translate(500, -500)"></use><use xlink:href="#transformed-11899" transform="translate(-500, 0)"></use><use xlink:href="#transformed-11899" transform="translate(0, 0)"></use><use xlink:href="#transformed-11899" transform="translate(500, 0)"></use><use xlink:href="#transformed-11899" transform="translate(-500, 500)"></use><use xlink:href="#transformed-11899" transform="translate(0, 500)"></use><use xlink:href="#transformed-11899" transform="translate(500, 500)"></use><use xlink:href="#transformed-85195" transform="translate(-500, -500)"></use><use xlink:href="#transformed-85195" transform="translate(0, -500)"></use><use xlink:href="#transformed-85195" transform="translate(500, -500)"></use><use xlink:href="#transformed-85195" transform="translate(-500, 0)"></use><use xlink:href="#transformed-85195" transform="translate(0, 0)"></use><use xlink:href="#transformed-85195" transform="translate(500, 0)"></use><use xlink:href="#transformed-85195" transform="translate(-500, 500)"></use><use xlink:href="#transformed-85195" transform="translate(0, 500)"></use><use xlink:href="#transformed-85195" transform="translate(500, 500)"></use><use xlink:href="#transformed-02867" transform="translate(-500, -500)"></use><use xlink:href="#transformed-02867" transform="translate(0, -500)"></use><use xlink:href="#transformed-02867" transform="translate(500, -500)"></use><use xlink:href="#transformed-02867" transform="translate(-500, 0)"></use><use xlink:href="#transformed-02867" transform="translate(0, 0)"></use><use xlink:href="#transformed-02867" transform="translate(500, 0)"></use><use xlink:href="#transformed-02867" transform="translate(-500, 500)"></use><use xlink:href="#transformed-02867" transform="translate(0, 500)"></use><use xlink:href="#transformed-02867" transform="translate(500, 500)"></use><use xlink:href="#transformed-45706" transform="translate(-500, -500)"></use><use xlink:href="#transformed-45706" transform="translate(0, -500)"></use><use xlink:href="#transformed-45706" transform="translate(500, -500)"></use><use xlink:href="#transformed-45706" transform="translate(-500, 0)"></use><use xlink:href="#transformed-45706" transform="translate(0, 0)"></use><use xlink:href="#transformed-45706" transform="translate(500, 0)"></use><use xlink:href="#transformed-45706" transform="translate(-500, 500)"></use><use xlink:href="#transformed-45706" transform="translate(0, 500)"></use><use xlink:href="#transformed-45706" transform="translate(500, 500)"></use></svg>